<svg xmlns="http://www.w3.org/2000/svg" version="1.1" xmlns:xlink="http://www.w3.org/1999/xlink" xmlns:svgjs="http://svgjs.dev/svgjs" width="1500" height="935" viewBox="0 0 1500 935"><g transform="matrix(1,0,0,1,-0.9090909090909918,83.75567476383264)"><svg viewBox="0 0 396 247" data-background-color="#ffffff" preserveAspectRatio="xMidYMid meet" height="935" width="1500" xmlns="http://www.w3.org/2000/svg" xmlns:xlink="http://www.w3.org/1999/xlink"><g id="tight-bounds" transform="matrix(1,0,0,1,0.2400000000000091,-0.09999999999999432)"><svg viewBox="0 0 395.52 247.2" height="247.2" width="395.52"><g><svg></svg></g><g><svg viewBox="0 0 395.52 247.2" height="247.2" width="395.52"><g transform="matrix(1,0,0,1,93.21362409308466,47.215199999999996)"><svg viewBox="0 0 209.09275181383066 152.7696" height="152.7696" width="209.09275181383066"><g><svg viewBox="0 0 244.43135999999998 178.58907480400757" height="152.7696" width="209.09275181383066"><g transform="matrix(1,0,0,1,0,132.55527503171155)"><svg viewBox="0 0 244.43135999999998 46.033799772296014" height="46.033799772296014" width="244.43135999999998"><g id="textblocktransform"><svg viewBox="0 0 244.43135999999998 46.033799772296014" height="46.033799772296014" width="244.43135999999998" id="textblock"><g><svg viewBox="0 0 244.43135999999998 46.033799772296014" height="46.033799772296014" width="244.43135999999998"><g transform="matrix(1,0,0,1,0,0)"><svg width="244.43135999999998" viewBox="1.64 -38.28 205.84 38.77" height="46.033799772296014" data-palette-color="#085f63"><path d="M1.64 0L1.64-2.73Q4.03-2.73 4.74-3.2 5.44-3.66 5.65-4.19 5.86-4.71 5.86-5.44L5.86-5.44 5.86-31.18Q5.86-32.76 5.27-33.18L5.27-33.18Q4.3-33.89 1.64-33.89L1.64-33.89 1.64-36.62 10.06-36.62 31.01-10.03 31.01-31.18Q31.01-32.79 30.44-33.18L30.44-33.18Q29.47-33.89 26.83-33.89L26.83-33.89 26.83-36.62 39.14-36.62 39.14-33.89Q36.74-33.89 36.04-33.42 35.33-32.96 35.12-32.43 34.91-31.91 34.91-31.18L34.91-31.18 34.91 0 31.91 0 9.77-28.1 9.77-5.44Q9.77-3.86 10.35-3.44L10.35-3.44Q11.33-2.73 14.01-2.73L14.01-2.73 14.01 0 1.64 0ZM65.26-11.25L65.26-11.25 48.31-11.25Q48.31-7.06 50.3-4.76 52.29-2.47 55.22-2.47L55.22-2.47Q59.15-2.47 60.86-5.71L60.86-5.71 64.5-5.74Q63.94-3.13 61.29-1.32 58.64 0.49 54.15 0.49 49.66 0.49 46.38-2.29L46.38-2.29Q42.48-5.64 42.48-11.72 42.48-17.8 45.59-21.52 48.7-25.24 54.51-25.24L54.51-25.24Q62.16-25.24 64.4-19.09L64.4-19.09Q65.31-16.63 65.31-14.43 65.31-12.23 65.26-11.25ZM59.62-14.92L59.62-14.92Q59.62-22.39 54.54-22.39L54.54-22.39Q51.68-22.39 50.08-20.17 48.48-17.94 48.34-14.01L48.34-14.01 59.59-14.01Q59.62-14.48 59.62-14.92ZM83.1-21.51L83.1-21.51Q81.86-22.75 79.02-22.75 76.19-22.75 75.19-20.7L75.19-20.7Q74.92-20.12 74.92-19.37 74.92-18.63 75.51-17.93 76.09-17.24 77.02-16.61 77.95-15.99 79.11-15.41 80.27-14.82 81.51-14.14 82.76-13.45 84.15-12.7L84.15-12.7Q89.25-9.91 89.25-6.53 89.25-3.15 86.62-1.33 83.98 0.49 79.62 0.49 75.26 0.49 72.43-1.07 69.6-2.64 69.6-5.1L69.6-5.1Q69.6-6.45 70.49-7.37 71.38-8.3 72.76-8.3 74.14-8.3 75.04-7.43 75.95-6.57 75.95-5.37 75.95-4.17 75.12-3.34L75.12-3.34Q77.07-2.22 79.96-2.22 82.86-2.22 84.03-3.56L84.03-3.56Q84.52-4.1 84.52-4.96L84.52-4.96Q84.52-6.98 80.02-9.18L80.02-9.18Q76.9-10.72 75.34-11.6L75.34-11.6Q70.33-14.43 70.33-18.43L70.33-18.43Q70.33-21.51 72.88-23.36 75.43-25.22 79.39-25.22 83.34-25.22 86.04-23.74 88.74-22.27 88.74-19.92L88.74-19.92Q88.74-18.55 88.08-17.9L88.08-17.9Q86.93-16.75 85.88-16.75L85.88-16.75Q84.17-16.75 83.31-17.61 82.44-18.48 82.44-19.6 82.44-20.73 83.1-21.51ZM108.44-21.58L108.44-21.58Q104.44-21.58 101.95-19.09L101.95-19.09 101.95-5.25Q101.95-3.74 102.43-3.34L102.43-3.34Q103.29-2.69 105.66-2.69L105.66-2.69 105.66 0 93.25 0 93.25-2.69Q95.35-2.69 95.89-3.11 96.43-3.54 96.55-4.03 96.67-4.52 96.67-5.25L96.67-5.25 96.67-31.74Q96.67-33.5 96.37-34.03 96.06-34.57 94.69-34.57L94.69-34.57 93.21-34.57 93.21-37.26Q95.5-37.26 96.81-37.61 98.11-37.96 98.66-38.12 99.21-38.28 99.85-38.28L99.85-38.28Q101.14-38.28 101.54-37.54 101.95-36.79 101.95-35.16L101.95-35.16 101.95-21.97Q104.46-24.17 108-24.98L108-24.98Q109.15-25.24 110.25-25.24L110.25-25.24Q118.16-25.24 118.16-14.75L118.16-14.75 118.16-5.3Q118.16-3.69 118.62-3.19 119.08-2.69 121.16-2.69L121.16-2.69 121.16 0 109.61 0 109.61-2.69Q111.83-2.69 112.28-3.14 112.74-3.59 112.81-4.08 112.88-4.57 112.88-5.3L112.88-5.3 112.88-14.43Q112.88-17.82 112.25-19.09L112.25-19.09Q111-21.58 108.44-21.58ZM145.89-16.8L145.89-5.83Q145.89-2.93 147.04-2.93L147.04-2.93Q148.13-2.93 148.65-3.67 149.16-4.42 149.16-6.37L149.16-6.37 151.72-6.37Q151.75-6.05 151.75-5.37L151.75-5.37Q151.75-3.17 150.65-1.56L150.65-1.56Q149.31 0.49 146.38 0.49L146.38 0.49Q144.47 0.49 143.13-0.59 141.79-1.66 141.27-3.42L141.27-3.42Q137.73 0.49 132.31 0.49L132.31 0.49Q129.34 0.49 127.13-1.26 124.92-3 124.92-6.13L124.92-6.13Q124.92-11.55 132.92-14.14L132.92-14.14Q138-15.75 139-16.37 140-16.99 140.31-17.64 140.62-18.29 140.62-19.09L140.62-19.09Q140.62-20.53 139.2-21.5 137.78-22.46 135.51-22.46 133.24-22.46 131.51-21.24L131.51-21.24Q132.73-20.34 132.73-18.92 132.73-17.5 131.79-16.65 130.85-15.8 129.52-15.8 128.19-15.8 127.32-16.6 126.45-17.41 126.45-18.85L126.45-18.85Q126.45-21.7 129.34-23.47 132.22-25.24 136.34-25.24L136.34-25.24Q143.72-25.24 145.35-20.46L145.35-20.46Q145.89-18.87 145.89-16.8L145.89-16.8ZM135.12-11.91Q132.97-10.99 131.9-9.53 130.82-8.08 130.82-6.37 130.82-4.66 131.75-3.78 132.68-2.91 134.07-2.91L134.07-2.91Q136.9-2.91 138.76-4.9 140.62-6.88 140.62-10.45L140.62-10.45 140.62-14.21Q139.05-13.4 137.31-12.74 135.56-12.08 135.12-11.91L135.12-11.91ZM168.32-21.58L168.32-21.58Q164.32-21.58 161.83-19.09L161.83-19.09 161.83-5.25Q161.83-3.74 162.32-3.34L162.32-3.34Q163.17-2.69 165.54-2.69L165.54-2.69 165.54 0 153.14 0 153.14-2.69Q155.24-2.69 155.77-3.11 156.31-3.54 156.43-4.03 156.55-4.52 156.55-5.25L156.55-5.25 156.55-18.55Q156.55-20.31 156.25-20.85 155.94-21.39 154.58-21.39L154.58-21.39 153.09-21.39 153.09-24.07Q155.38-24.07 156.69-24.43 158-24.78 158.54-24.94 159.09-25.1 159.73-25.1L159.73-25.1Q161.02-25.1 161.43-24.35 161.83-23.61 161.83-21.97L161.83-21.97Q164.44-24.17 167.88-24.95L167.88-24.95Q169.03-25.22 170.13-25.22L170.13-25.22Q178.04-25.22 178.04-14.75L178.04-14.75 178.04-5.3Q178.04-3.69 178.5-3.19 178.97-2.69 181.04-2.69L181.04-2.69 181.04 0 169.49 0 169.49-2.69Q171.72-2.69 172.17-3.14 172.62-3.59 172.69-4.08 172.77-4.57 172.77-5.3L172.77-5.3 172.77-14.43Q172.77-17.82 172.13-19.09L172.13-19.09Q170.89-21.58 168.32-21.58ZM207.43-11.25L207.43-11.25 190.49-11.25Q190.49-7.06 192.48-4.76 194.47-2.47 197.4-2.47L197.4-2.47Q201.33-2.47 203.04-5.71L203.04-5.71 206.67-5.74Q206.11-3.13 203.46-1.32 200.82 0.49 196.32 0.49 191.83 0.49 188.56-2.29L188.56-2.29Q184.65-5.64 184.65-11.72 184.65-17.8 187.77-21.52 190.88-25.24 196.69-25.24L196.69-25.24Q204.33-25.24 206.58-19.09L206.58-19.09Q207.48-16.63 207.48-14.43 207.48-12.23 207.43-11.25ZM201.79-14.92L201.79-14.92Q201.79-22.39 196.71-22.39L196.71-22.39Q193.86-22.39 192.26-20.17 190.66-17.94 190.51-14.01L190.51-14.01 201.77-14.01Q201.79-14.48 201.79-14.92Z" opacity="1" transform="matrix(1,0,0,1,0,0)" fill="#085f63" class="wordmark-text-0" data-fill-palette-color="primary" id="text-0"></path></svg></g></svg></g></svg></g></svg></g><g transform="matrix(1,0,0,1,66.80551779918878,0)"><svg viewBox="0 0 110.82032440162244 110.82032440162244" height="110.82032440162244" width="110.82032440162244"><g><svg></svg></g><g id="icon-0"><svg viewBox="0 0 110.82032440162244 110.82032440162244" height="110.82032440162244" width="110.82032440162244"><g><path d="M0 55.41c0-30.602 24.808-55.41 55.41-55.41 30.602 0 55.41 24.808 55.41 55.41 0 30.602-24.808 55.41-55.41 55.41-30.602 0-55.41-24.808-55.41-55.41zM55.41 106.669c28.309 0 51.259-22.949 51.259-51.259 0-28.309-22.949-51.259-51.259-51.259-28.309 0-51.259 22.949-51.259 51.259 0 28.309 22.949 51.259 51.259 51.259z" data-fill-palette-color="accent" fill="#49beb7" stroke="transparent"></path><ellipse rx="54.85606057880311" ry="54.85606057880311" cx="55.41016220081122" cy="55.41016220081122" fill="#49beb7" stroke="transparent" stroke-width="0" fill-opacity="1" data-fill-palette-color="accent"></ellipse></g><g transform="matrix(1,0,0,1,38.09581195240859,24.505453909706738)"><svg viewBox="0 0 34.628700496805266 61.80941658220897" height="61.80941658220897" width="34.628700496805266"><g><svg xmlns="http://www.w3.org/2000/svg" xml:space="preserve" viewBox="27.936999936122827 10.428999999999998 44.6110004439801 79.62701086185612" x="0" y="0" height="61.80941658220897" width="34.628700496805266" class="icon-dxe-0" data-fill-palette-color="quaternary" id="dxe-0"><path d="M64.548 10.429H35.937a8 8 0 0 0-8 8v63.625a8 8 0 0 0 7.999 8.001 8 8 0 0 0 6.531-3.38l7.714-10.899 7.872 10.948a7.999 7.999 0 0 0 14.495-4.67V18.429a8 8 0 0 0-8-8m0 71.625L50.129 61.999 35.937 82.054V18.429h28.611z" fill="#ffffff" data-fill-palette-color="quaternary"></path></svg></g></svg></g></svg></g></svg></g><g></g></svg></g></svg></g><g><path d="M137.854 37.919A104.546 104.546 0 0 1 257.666 37.919L254.114 37.919A100.995 100.995 0 0 0 141.406 37.919L137.854 37.919M137.854 209.281A104.546 104.546 0 0 0 257.666 209.281L254.114 209.281A100.995 100.995 0 0 1 141.406 209.281L137.854 209.281" fill="#085f63" stroke="transparent" data-fill-palette-color="tertiary"></path></g></svg></g><defs></defs></svg><rect width="395.52" height="247.2" fill="none" stroke="none" visibility="hidden"></rect></g></svg></g></svg>